<svg width="512" height="512" viewBox="0 0 512 512" fill="none" xmlns="http://www.w3.org/2000/svg">
<path d="M495.899 166.6C499.199 175.2 496.399 184.9 489.599 191.2L446.299 230.6C447.399 238.9 447.999 247.4 447.999 256C447.999 264.6 447.399 273.1 446.299 281.4L489.599 320.8C496.399 327.1 499.199 336.8 495.899 345.4C491.499 357.3 486.199 368.8 480.199 379.7L475.499 387.8C468.899 398.8 461.499 409.2 453.399 419.1C447.399 426.2 437.699 428.7 428.899 425.9L373.199 408.1C359.799 418.4 344.099 427 329.199 433.6L316.699 490.7C314.699 499.7 307.699 506.1 298.499 508.5C284.699 510.8 270.499 512 255.099 512C241.499 512 227.299 510.8 213.499 508.5C204.299 506.1 197.299 499.7 195.299 490.7L182.799 433.6C166.999 427 152.199 418.4 138.799 408.1L83.1393 425.9C74.2993 428.7 64.5493 426.2 58.6293 419.1C50.5193 409.2 43.1193 398.8 36.5193 387.8L31.8393 379.7C25.7693 368.8 20.4893 357.3 16.0593 345.4C12.8193 336.8 15.5493 327.1 22.4093 320.8L65.6693 281.4C64.5693 273.1 63.9993 264.6 63.9993 256C63.9993 247.4 64.5693 238.9 65.6693 230.6L22.4093 191.2C15.5493 184.9 12.8193 175.3 16.0593 166.6C20.4893 154.7 25.7793 143.2 31.8393 132.3L36.5093 124.2C43.1193 113.2 50.5193 102.8 58.6293 92.95C64.5493 85.8 74.2993 83.32 83.1393 86.14L138.799 103.9C152.199 93.56 166.999 84.96 182.799 78.43L195.299 21.33C197.299 12.25 204.299 5.04 213.499 3.51C227.299 1.201 241.499 0 255.999 0C270.499 0 284.699 1.201 298.499 3.51C307.699 5.04 314.699 12.25 316.699 21.33L329.199 78.43C344.099 84.96 359.799 93.56 373.199 103.9L428.899 86.14C437.699 83.32 447.399 85.8 453.399 92.95C461.499 102.8 468.899 113.2 475.499 124.2L480.199 132.3C486.199 143.2 491.499 154.7 495.899 166.6ZM255.999 336C300.199 336 335.999 300.2 335.999 255.1C335.999 211.8 300.199 175.1 255.999 175.1C211.799 175.1 175.999 211.8 175.999 255.1C175.999 300.2 211.799 336 255.999 336Z" fill="#7D807D"/>
</svg>
